<svg width="388" height="109" viewBox="0 0 388 109" fill="none" xmlns="http://www.w3.org/2000/svg">
<g clip-path="url(#clip0_18_2)">
<path fill-rule="evenodd" clip-rule="evenodd" d="M55.0172 22.3565C54.1693 24.2915 52.8319 25.964 51.1606 27.216V53.9592C51.1606 67.1594 40.0076 77.936 26.8593 78.269C26.8398 78.269 26.8179 78.269 26.7984 78.269C20.3376 78.269 14.1398 75.7068 9.57191 71.1487C5.00399 66.5906 2.43622 60.4062 2.43622 53.9592C2.43622 47.5609 2.43622 36.9424 2.43622 36.9424C2.43622 35.9602 3.03066 35.0729 3.93937 34.6961C4.85051 34.3193 5.89809 34.5284 6.59485 35.2236L23.6484 52.2405C24.3451 52.9358 24.5547 53.9811 24.177 54.8903C23.7994 55.797 22.9102 56.3902 21.926 56.3902H17.3629C17.7941 58.0579 18.6663 59.5967 19.9088 60.834C21.736 62.6597 24.2136 63.6831 26.7984 63.6831C32.18 63.6831 36.5433 59.3293 36.5433 53.9592V27.216C33.5857 24.9989 31.6709 21.4667 31.6709 17.4945C31.6709 10.785 37.128 5.3396 43.852 5.3396C48.8438 5.3396 53.1364 8.34186 55.0172 12.6325H49.2969C47.9594 11.1399 46.0153 10.2016 43.852 10.2016C39.8176 10.2016 36.5433 13.4688 36.5433 17.4945C36.5433 20.1929 38.0148 22.5509 40.2001 23.8126C40.9529 24.2478 41.4157 25.0476 41.4157 25.9154V53.9592C41.4157 62.0155 34.8721 68.5451 26.7984 68.5451C22.9224 68.5451 19.2047 67.0087 16.4615 64.2739C13.7208 61.5366 12.1811 57.8269 12.1811 53.879C12.1811 52.5808 13.236 51.5282 14.5369 51.5282H16.0449L7.30866 42.8107V53.9592C7.30866 59.1178 9.36239 64.0648 13.0167 67.7113C16.6637 71.3505 21.6093 73.3998 26.7838 73.4071C37.3107 73.1178 46.2882 64.534 46.2882 53.9592V25.9154C46.2882 25.0476 46.7511 24.2478 47.5039 23.8126C48.1762 23.4237 48.7804 22.9302 49.2969 22.3565H55.0172Z" fill="black"/>
<path fill-rule="evenodd" clip-rule="evenodd" d="M65.7779 36.9424C68.3628 36.9424 70.8404 35.9189 72.6676 34.0933C74.4972 32.27 75.5228 29.7977 75.5228 27.2184C75.5228 26.4138 75.5228 25.5921 75.5228 24.7875C75.5228 22.2082 74.4972 19.7359 72.6676 17.9126C70.8404 16.087 68.3628 15.0635 65.7779 15.0635H43.852C42.5072 15.0635 41.4157 16.1526 41.4157 17.4945C41.4157 18.8364 42.5072 19.9255 43.852 19.9255H65.7779C67.0691 19.9255 68.3092 20.4384 69.2228 21.3501C70.1363 22.2617 70.6504 23.499 70.6504 24.7875V27.2184C70.6504 28.5069 70.1363 29.7442 69.2228 30.6558C68.3092 31.5675 67.0691 32.0804 65.7779 32.0804C60.3963 32.0804 56.0331 36.4343 56.0331 41.8043V46.6663C56.0331 52.0363 60.3963 56.3902 65.7779 56.3902C69.4323 56.3902 73.0866 56.3902 73.0866 56.3902C74.4314 56.3902 75.5228 55.3011 75.5228 53.9592C75.5228 52.6173 74.4314 51.5283 73.0866 51.5283C73.0866 51.5283 69.4323 51.5283 65.7779 51.5283C63.0859 51.5283 60.9055 49.3525 60.9055 46.6663V41.8043C60.9055 39.1181 63.0859 36.9424 65.7779 36.9424Z" fill="#4275E2"/>
</g>
<path d="M125.455 76.47C125.455 82.3017 131.286 80.1257 131.286 83.5203C131.286 84.4778 130.677 85.2611 129.11 85.2611C127.108 85.2611 124.41 85 121.102 85C117.795 85 115.097 85.2611 113.182 85.2611C111.615 85.2611 111.006 84.4778 111.006 83.5203C111.006 80.1257 116.75 82.3017 116.75 76.47V57.9302C116.75 56.6246 116.315 56.0153 114.4 56.0153H85.7638C83.7618 56.0153 83.3266 56.6246 83.3266 57.9302V76.47C83.3266 82.3017 89.0713 80.1257 89.0713 83.5203C89.0713 84.4778 88.462 85.2611 86.8953 85.2611C84.9804 85.2611 82.1951 85 78.8875 85C75.5799 85 72.9687 85.2611 70.9668 85.2611C69.4871 85.2611 68.7907 84.4778 68.7907 83.5203C68.7907 80.1257 74.6225 82.3017 74.6225 76.47V31.9919C74.6225 26.1602 68.7907 28.2492 68.7907 24.8546C68.7907 23.9841 69.4871 23.1137 71.0538 23.1137C73.0557 23.1137 75.5799 23.3749 78.8875 23.3749C82.1951 23.3749 84.9804 23.1137 86.8953 23.1137C88.462 23.1137 89.0713 23.9841 89.0713 24.8546C89.0713 28.2492 83.3266 26.1602 83.3266 31.9919V49.4002C83.3266 50.7928 83.7618 51.3151 85.7638 51.3151H114.4C116.315 51.3151 116.75 50.7928 116.75 49.4002V31.9919C116.75 26.1602 111.006 28.2492 111.006 24.8546C111.006 23.9841 111.615 23.1137 113.182 23.1137C115.097 23.1137 117.795 23.3749 121.102 23.3749C124.41 23.3749 127.108 23.1137 129.11 23.1137C130.677 23.1137 131.286 23.9841 131.286 24.8546C131.286 28.2492 125.455 26.1602 125.455 31.9919V76.47ZM159.57 86.5667C146.253 86.5667 136.939 77.1663 136.939 63.936C136.939 50.5317 146.949 40.609 160.614 40.609C173.932 40.609 183.245 50.0095 183.245 63.4138C183.245 76.7311 173.148 86.5667 159.57 86.5667ZM161.398 81.8665C169.667 81.8665 174.802 75.1643 174.802 66.4602C174.802 55.493 168.274 45.3963 158.787 45.3963C150.518 45.3963 145.382 52.0114 145.382 60.8026C145.382 71.6827 151.91 81.8665 161.398 81.8665ZM211.761 86.5667C198.443 86.5667 189.13 77.1663 189.13 63.936C189.13 50.5317 199.14 40.609 212.805 40.609C226.122 40.609 235.436 50.0095 235.436 63.4138C235.436 76.7311 225.339 86.5667 211.761 86.5667ZM213.588 81.8665C221.857 81.8665 226.993 75.1643 226.993 66.4602C226.993 55.493 220.465 45.3963 210.977 45.3963C202.708 45.3963 197.573 52.0114 197.573 60.8026C197.573 71.6827 204.101 81.8665 213.588 81.8665ZM284.145 78.8201C286.234 81.9536 290.064 81.1702 290.064 83.6073C290.064 84.7389 289.193 85.2611 287.975 85.2611C285.712 85.2611 283.361 85 279.706 85C276.398 85 274.222 85.2611 272.307 85.2611C270.915 85.2611 270.044 84.7389 270.044 83.5203C270.044 80.735 274.396 81.9536 274.396 78.8201C274.396 77.9497 273.961 77.1663 273.265 76.0348L263.777 61.2378L254.116 69.3326V75.6866C254.116 82.7369 259.686 80.2127 259.686 83.5203C259.686 84.3037 259.164 85.2611 257.858 85.2611C255.943 85.2611 253.332 85 250.199 85C247.152 85 244.715 85.2611 242.8 85.2611C241.408 85.2611 240.798 84.3037 240.798 83.5203C240.798 80.2127 246.282 82.7369 246.282 75.6866V31.9919C246.282 26.5954 240.102 29.5548 240.102 26.1602C240.102 24.7675 241.582 23.723 246.195 21.547C250.634 19.458 251.504 19.1969 252.462 19.1969C253.68 19.1969 254.116 20.2414 254.116 21.46V63.849L269.174 50.7928C270.479 49.5742 271.611 48.7038 271.611 47.4853C271.611 45.2222 267.694 46.2667 267.694 43.7425C267.694 42.4369 268.564 41.9146 269.957 41.9146C271.785 41.9146 274.57 42.1757 276.92 42.1757C279.271 42.1757 282.839 41.9146 285.015 41.9146C286.234 41.9146 287.104 42.5239 287.104 43.6554C287.104 46.3537 282.317 45.6574 278.661 48.7909L269.435 56.5375L284.145 78.8201ZM329.792 73.9458C330.749 73.9458 331.533 74.8162 331.533 75.9477C331.533 76.47 331.272 77.1663 330.749 78.0367C327.529 82.6499 319.956 86.5667 312.384 86.5667C300.546 86.5667 290.536 78.2978 290.536 63.762C290.536 50.0965 300.546 40.609 311.948 40.609C322.654 40.609 329.792 48.7909 329.792 57.3209C329.792 59.1488 329.27 59.671 327.964 60.1062L300.024 68.4622C302.374 75.5996 308.032 80.6479 315.256 80.6479C320.391 80.6479 324.743 78.3849 327.529 75.2514C328.399 74.381 329.095 73.9458 329.792 73.9458ZM310.817 45.6574C303.941 45.6574 298.718 51.5762 298.718 60.5414C298.718 61.76 298.805 62.8915 298.979 64.0231L319.086 57.7561C320.652 57.3209 321.088 56.8857 321.088 55.406C321.088 51.0539 316.997 45.6574 310.817 45.6574ZM379.951 73.3365C379.951 78.646 386.392 76.7311 386.392 80.0387C386.392 81.5184 384.739 82.3888 379.864 84.1296C375.686 85.6963 374.555 85.9575 373.945 85.9575C372.118 85.9575 372.118 83.9555 372.118 82.824V78.0367C368.897 82.7369 363.501 86.1315 356.45 86.1315C345.918 86.1315 336.692 77.9497 336.692 64.1972C336.692 50.6187 346.092 41.0442 358.452 41.0442C364.371 41.0442 368.984 43.1332 372.118 46.1796V31.9049C372.118 26.5083 365.067 29.5548 365.067 25.9861C365.067 24.5934 366.634 23.723 371.508 21.547C375.773 19.6321 377.427 19.1969 378.036 19.1969C379.516 19.1969 379.951 20.5895 379.951 22.2433V73.3365ZM359.497 80.1257C365.502 80.1257 372.118 75.8607 372.118 66.8954V61.4118C372.118 51.4892 364.545 45.5704 358.104 45.5704C349.748 45.5704 344.961 52.6207 344.961 61.673C344.961 73.3365 352.359 80.1257 359.497 80.1257Z" fill="black"/>
<defs>
<clipPath id="clip0_18_2">
<rect width="77.959" height="75.3604" fill="white" transform="translate(0 2.90863)"/>
</clipPath>
</defs>
</svg>
