<svg width="78" height="77" viewBox="0 0 78 77" fill="none" xmlns="http://www.w3.org/2000/svg">
<g clip-path="url(#clip0_18_3)">
<path fill-rule="evenodd" clip-rule="evenodd" d="M55.0172 20.3565C54.1693 22.2915 52.8319 23.964 51.1606 25.216V51.9592C51.1606 65.1594 40.0076 75.936 26.8593 76.269C26.8398 76.269 26.8179 76.269 26.7984 76.269C20.3376 76.269 14.1398 73.7068 9.57191 69.1487C5.00399 64.5906 2.43622 58.4062 2.43622 51.9592C2.43622 45.5609 2.43622 34.9424 2.43622 34.9424C2.43622 33.9602 3.03066 33.0729 3.93937 32.6961C4.85051 32.3193 5.89809 32.5284 6.59485 33.2236L23.6484 50.2405C24.3451 50.9358 24.5547 51.9811 24.177 52.8903C23.7994 53.797 22.9102 54.3902 21.926 54.3902H17.3629C17.7941 56.0579 18.6663 57.5967 19.9088 58.834C21.736 60.6597 24.2136 61.6831 26.7984 61.6831C32.18 61.6831 36.5433 57.3293 36.5433 51.9592V25.216C33.5857 22.9989 31.6709 19.4667 31.6709 15.4945C31.6709 8.785 37.128 3.3396 43.852 3.3396C48.8438 3.3396 53.1364 6.34186 55.0172 10.6325H49.2969C47.9594 9.13992 46.0153 8.20156 43.852 8.20156C39.8176 8.20156 36.5433 11.4688 36.5433 15.4945C36.5433 18.1929 38.0148 20.5509 40.2001 21.8126C40.9529 22.2478 41.4157 23.0476 41.4157 23.9154V51.9592C41.4157 60.0155 34.8721 66.5451 26.7984 66.5451C22.9224 66.5451 19.2047 65.0087 16.4615 62.2739C13.7208 59.5366 12.1811 55.8269 12.1811 51.879C12.1811 50.5808 13.236 49.5282 14.5369 49.5282H16.0449L7.30866 40.8107V51.9592C7.30866 57.1178 9.36239 62.0648 13.0167 65.7113C16.6637 69.3505 21.6093 71.3998 26.7838 71.4071C37.3107 71.1178 46.2882 62.534 46.2882 51.9592V23.9154C46.2882 23.0476 46.7511 22.2478 47.5039 21.8126C48.1762 21.4237 48.7804 20.9302 49.2969 20.3565H55.0172Z" fill="black"/>
<path fill-rule="evenodd" clip-rule="evenodd" d="M65.7779 34.9424C68.3628 34.9424 70.8404 33.9189 72.6676 32.0933C74.4972 30.27 75.5228 27.7977 75.5228 25.2184C75.5228 24.4138 75.5228 23.5921 75.5228 22.7875C75.5228 20.2082 74.4972 17.7359 72.6676 15.9126C70.8404 14.087 68.3628 13.0635 65.7779 13.0635H43.852C42.5072 13.0635 41.4157 14.1526 41.4157 15.4945C41.4157 16.8364 42.5072 17.9255 43.852 17.9255H65.7779C67.0691 17.9255 68.3092 18.4384 69.2228 19.3501C70.1363 20.2617 70.6504 21.499 70.6504 22.7875V25.2184C70.6504 26.5069 70.1363 27.7442 69.2228 28.6558C68.3092 29.5675 67.0691 30.0804 65.7779 30.0804C60.3963 30.0804 56.0331 34.4343 56.0331 39.8043V44.6663C56.0331 50.0363 60.3963 54.3902 65.7779 54.3902C69.4323 54.3902 73.0866 54.3902 73.0866 54.3902C74.4314 54.3902 75.5228 53.3011 75.5228 51.9592C75.5228 50.6173 74.4314 49.5283 73.0866 49.5283C73.0866 49.5283 69.4323 49.5283 65.7779 49.5283C63.0859 49.5283 60.9055 47.3525 60.9055 44.6663V39.8043C60.9055 37.1181 63.0859 34.9424 65.7779 34.9424Z" fill="#4275E2"/>
</g>
<defs>
<clipPath id="clip0_18_3">
<rect width="77.959" height="75.3604" fill="white" transform="translate(0 0.90863)"/>
</clipPath>
</defs>
</svg>
